<?xml version="1.0" encoding="UTF-8"?>
<svg width="141px" height="125px" viewBox="0 0 141 125" version="1.1" xmlns="http://www.w3.org/2000/svg" xmlns:xlink="http://www.w3.org/1999/xlink">
    <!-- Generator: Sketch 51.2 (57519) - http://www.bohemiancoding.com/sketch -->
    <title>Artboard</title>
    <desc>Created with Sketch.</desc>
    <defs></defs>
    <g id="Artboard" stroke="none" stroke-width="1" fill="none" fill-rule="evenodd">
        <g id="logo" transform="translate(37.000000, 33.000000)" fill="#FFFFFF" fill-rule="nonzero">
            <path d="M67.8046934,20.6795985 C66.4452008,10.1653679 58.0333403,1.6861497 47.582241,0.244682603 C36.7912685,-1.28157668 27.189852,4.48429171 22.8564693,13.3026787 L17.1635941,13.3026787 C7.64714587,13.3026787 0,20.9339751 0,30.3459073 C0,38.2315802 5.4379704,44.9301626 12.7452431,46.8803828 C14.8694503,47.4739281 16.9936575,45.7780845 16.9936575,43.5734877 L16.9936575,43.4886955 C16.9936575,41.9624363 15.8890698,40.7753457 14.4446089,40.3513848 C9.85632135,39.0795021 6.54255813,34.839893 6.88243128,29.8371542 C7.22230443,24.2408702 12.2354334,20.0860532 17.7583721,20.0860532 L22.8564693,20.0860532 L27.1048837,20.0860532 L28.974186,16.270405 C32.3729175,9.40223828 39.7651585,5.58659008 47.582241,7.11284936 C53.9548625,8.29993991 59.2228964,13.3874708 60.7523255,19.6620923 C61.9418816,24.5800389 60.9222621,29.2436089 58.4581818,32.8896728 C58.0333403,33.483218 57.7784355,34.2463477 57.7784355,34.9246851 C57.7784355,38.3163724 62.1967864,39.5882552 64.0660887,36.7901131 C67.0399788,32.2113353 68.569408,26.6150513 67.8046934,20.6795985 Z" id="Shape"></path>
            <path d="M39.7639752,28.02 C39.0931677,27.34 38.2546584,27 37.4161491,27 C36.5776398,27 35.7391304,27.34 35.068323,28.02 L25.0062112,38.22 C23.6645963,39.58 23.6645963,41.705 25.0062112,43.065 C26.3478261,44.425 28.4440994,44.425 29.7857143,43.065 L34.1459627,38.645 L34.1459627,57.6 C34.1459627,59.47 35.6552795,61 37.5,61 C39.3447205,61 40.8540373,59.47 40.8540373,57.6 L40.8540373,38.645 L45.2142857,43.065 C46.5559006,44.425 48.6521739,44.425 49.9937888,43.065 C51.3354037,41.705 51.3354037,39.58 49.9937888,38.22 L39.7639752,28.02 Z" id="Shape"></path>
        </g>
        <circle id="Oval" stroke="#FFFFFF" stroke-width="3" fill-opacity="0.00979393116" fill="#FFFFFF" cx="71" cy="63" r="50"></circle>
    </g>
</svg>